<svg viewBox="0 0 1024 1024" version="1.1" xmlns="http://www.w3.org/2000/svg" id="Layer_1">
  
  <path d="M495.79,52.29c208.23-10.87,358.44,185.57,303.92,384.92-65.36,238.99-377.91,300.16-526.53,100.1-142.79-192.21-18.69-472.43,222.61-485.02h0ZM567.99,538c38.79,9.52,75.48,27.14,107.51,50.99,124.38-85.89,155.94-262.81,74.92-389.9C629.74,9.8,345.59,29.92,253.82,235.32c-45.76,102.43-27.73,234.03,50.66,315.69.77.8,4.54,5.1,5.51,3.98-2.11-9.63-.12-19.77,3.83-28.67,8.7-19.64,25.15-22.48,27.17-48.83,1.58-20.68-.57-29.78,13.99-47.01,10.55-12.5,28.15-20.35,37.03-31.97,5.98-7.82,2.52-5.2.51-9.52-1.61-3.45,3.92-21.66,4.36-27.61.89-11.96-3.6-15.43-6.59-26.15-2.42-8.67-2.96-17.47-4.77-26.21-23.19,7.89-17.43,37.27-18.52,56.48-1.73,30.63-11.26,52.17-40.63,64.37-3.97,1.65-20.67,8.02-21.95,1.2.43-5.13,6.39-9.38,9.42-13.73,28.8-41.21,7.64-80.06,5.18-123.84-8.34-148.62,135.61-236.66,271.2-193.2,6.45,2.07,31.95,10.52,34.68,15.31,4.89,8.59-2.61,10.1-6.43,14.35-5.64,6.28-23.18,29.49-24.28,36.81-.31,2.08.8,3.71.19,6.01-1.02,3.89-3.96,3.57-5.16,5.93-.5.99-3.06,11.78-2.74,12.33,6.7,4.75,14.13,8.4,20.84,13.14,24.33,17.19,43.93,43.46,68.79,63.21,5.18,4.12,26.32,17.97,27.97,22.04,3.12,7.74-3.56,10.12-9.39,12.75-11.25,5.07-24.79,8.51-36.69,11.83.82,3.67,1.96,8.8,2.08,12.48.13,3.89-1.41,6.59-.66,10.55,2.45,12.98,15.55,35.7,20.33,49.71,2.08,6.1,4.58,10.22.71,16.2-4.76,7.35-14.14,9.37-22.35,9.14-.93,5.1,1.81,9.43.84,15.35-.56,3.45-3.2,4.39-3.73,6.26-2,7.06,1.62,15.43-9.29,18.9,4.01,14.16,10.33,25.6-2.91,36.9-19.16,16.36-44.05,4.8-66.06,3.9l-8.95,44.59h-.02ZM366.5,279c-4.67,1.29-24.46,0-31,0-.25,0-.8-1.18-1.51-.58-1.64,1.13-1.11,15.06-.98,18.07,1.46,33.37,12.48,64.24,4.7,97.72-1.09,4.69-3.3,9.18-4.51,13.5-.34,1.22-.61,3.07,1.29,2.29.92-.38,8.4-8.27,9.35-9.66,17.8-25.94,2.21-68.4,17.33-90.67,1.97-2.9,8.99-8.22,9.63-10.37,1.18-3.98-.21-12.11.16-16.84,4.46-56.94,46.73-105.56,100.28-122.72,36.46-11.68,75.68-9.6,111.75,2.27.77-6.3,5.96-11.27,8.6-16.92l16.41-24.07-18.98-7.01c-1.55,1.2-10.83,31.5-13.81,36.7-1.41,2.45-3.44,4.41-6.48,4.13-2.34-.6-4.56-2.57-4.47-5.17l13.74-38.13c-.29-1.44-20.44-7.09-21.98-5.53-2.81,10.83-3.25,29.25-7.5,39-2.47,5.66-8.59,4.76-10.51-.52l7.01-40.49-22.01-1c-1.17,11.74.33,26.14-.98,37.52-.92,7.98-9.93,7.62-10.95.91-.91-5.93,2.3-37.08.94-38.44l-22.01,1.01c-1.4,1.35,6.19,33.06,6.1,38.52-.07,4.4-2.83,7.33-7.39,6.32-1.47-.44-2.76-2.39-3.24-3.8-3.51-10.35-3.58-25.68-6.51-36.49-.28-1.02-.21-1.9-1.43-2.39l-20.54,5.86,13.01,37.59c.61,6.28-7.19,9.09-10.42,3.32l-14.07-36.9-18.43,9.58c-.77,3.34,18.26,29.98,17.89,36.81-.29,5.38-7.15,6.25-9.97,2.1l-18.11-32.39c-2.28-1.33-15.9,9.6-18.42,11.86l24.8,31.29c2.82,6.48-3.17,9.94-8.82,6.8l-25.07-28.99c-1.73-.3-12.89,12.21-14.4,14.4-.6.88-1.52,1.37-.52,2.55,4.79,5,27.6,19.88,29.15,24.94s-3.62,8.7-8.33,6.28c-9.03-6.75-17.46-14.91-26.73-21.28-.88-.6-1.37-1.51-2.54-.52l-11.98,19.55c8.67,5.23,23.92,10.05,31.35,16.16,5.53,4.55.88,11.56-5.6,9.62l-30.77-15.34c-1.62,3.1-9.34,20.46-7.9,22.49,5.77,2.67,31.87,6.1,34.38,10.13,1.73,2.77,1.39,6.59-1.46,8.47-5.19,2.05-34.54-8.49-36.93-6.43l-3.07,22.93,32.98,1.52c4.65,2.05,3.32,9.43-.48,10.48l-.04-.04ZM577,175.01c-32.87-9.62-65.83-12.98-98.96-2.47-53.68,17.02-93.7,65.01-94.03,122.46.91-.5,2.68-.83,2.99-1.74,1.26-3.76,1.33-10.69,2.49-15.27,20.57-81.28,106.62-120.18,183.96-91.95l3.56-11.03h-.01ZM612,225.98c-34.09-32.77-89.83-44.29-134.27-27.75-47.63,17.74-81.65,65.53-77.72,117.25.23,3.05,1.99,14.53,3.49,16.53,1.32,1.75,3.14.29,4.75-.26,15.03-5.17,33.68-13.9,48.42-20.58,53.93-24.42,104.67-54.82,155.32-85.2h.01ZM673,282.99l-52.32-47.86-130.67,76.87c13.28-2.66,26.82-4.04,40.18-6.31,33.95-5.78,68.5-15.06,102.46-19.54,13.52-1.78,26.82-2.09,40.36-3.15h-.01ZM638,398.99l26.47-1.02c1.36-.16,3.08-1.26,3.33-2.61.39-2.07-9.29-22.62-10.82-26.85-3.14-8.69-9.31-26.37-9.03-35.05.11-3.39,1.27-6.05,1.05-9.94-.14-2.55-3.97-22.41-4.94-23.08-10.46-.68-21.78,2.1-32.24,3.87-17.02,2.89-33.91,6.68-50.8,10.2-4.72,8.97-11.74,16.1-19,23-1.55,1.47-5.98,3.75-6.71,4.79-.98,1.39-.99,4.41-2.12,6.39-8.42,14.72-24.93,29.49-43.17,24.32-2.22,6.94,7.06,12.2,7.82,15.73,1.22,5.68-3.59,8.53-8.88,6.82-7.25-2.35-10.21-15.81-9.95-22.55-15.52,1.37-8.76,20.5-2.02,28.52,5.27,6.27,12.79,10.38,20.73,6.68,1.57-.73,2.77-2.72,4.02-3.06,8.73-2.38,8.34,13.76-1.89,17.19-6.49,2.18-12.36.89-18.83-.33,2.67,15.58-2.04,34.88-10.2,48.3-7.49,12.32-20.63,17.53-25.53,32.47-2.07,6.31-2.05,13.34-4.24,19.76-2.87,8.43-9.26,15.78-17.03,19.96,22.21,11.7,41.18,28.56,62.69,41.31,24.14,14.31,65.34,33.49,93.57,27.96,5.92-1.16,13.95-4.93,15.97-11.03,5.46-16.52-15.89-37.53-27.73-46.71-3.26-.02,1.74,27.46-9.58,18.56-7.33-5.76-5.74-23.85-4.91-32.07,1.71-16.79,6.2-33.28,8.91-49.89-12.37-6.11-25.66-10.62-36.39-19.65-5.23-4.4-13.25-11.55-9.4-18.84,3.59-2.28,19.2,10.2,23.57,12.67,20.11,11.32,58.89,21.49,81.79,19.19,27.88-2.8,6.15-25.71,8.66-35.26,1.58-6.02,17.84-4.39,11.18-13.77-6.2-2.13-19.96,9.21-24.42,3.64s4.4-9.75,8.41-11.78c6.07-3.07,12.73-5.68,19.68-4.83l-1.43-9.06c-1.47-2.19-13.18,2.08-16.09-8.9-3.7-13.96,12.72-18.65,9.53-5.04h-.03ZM407,378.99c24.19-3.7,39.36-26.33,61.73-34.76,13.12-4.94,24.15-2.17,37.49-4.51,13.85-2.43,29.99-9.15,35.76-22.73-21.53,4.42-43.6,6.82-65.5,8.99-15.88,1.57-19.48,1.62-34.74,7.26-11.12,4.11-21.69,9.57-32.75,13.78,2.76,10.49.18,21.56-2,31.96h.01ZM366.65,513.65c10.73-10.86,6.35-25.35,8.46-39.04,4.07-26.4,33.21-36.43,49.41-55.59,15.91-18.82,28.92-59.49,57.12-60.95,10.19-.53,14.27,7.55,27.3-.62,1.6-1,5.91-4.28,6.06-6.43-10.67,4.3-22.87,1.69-33.41,3.08-22.37,2.96-41.46,27.86-62.61,36.39-2.41.97-7.81,1.33-9.34,2.43-.52.38-4.13,9.37-5.61,11.62-9.2,13.92-27.77,19.93-38.54,32.46-19.95,23.22-5.86,44.2-17.69,65.31-5.37,9.59-15.25,15.47-20.33,24.67-5.46,9.87-6.07,21.41-2.45,32.03l8.76-3.23c3-13.52,9.2-23.88,19.75-32.75,3.86-3.24,9.52-5.72,13.13-9.37h-.01ZM350.01,549c19.45-4.33,46.98-15.7,52.14-37.35,2.41-10.1.24-21.21,4.97-31.03,5.42-11.25,20.35-18.79,28.39-28.61,11.54-14.08,15.41-34.14,24.05-49.99l-2.58-9.02c-11.4,16.53-19.76,33.85-34.97,47.51-13.62,12.23-31.96,17.6-34.76,38.24-1.53,11.29,2.03,23.08-3.08,33.92-7.19,15.25-29.24,18.7-34.17,36.32h.01ZM468.44,413.53c-.6-.6-.62-2.94-1.92-.51-4.13,7.74-6.32,19.49-10.03,27.97-9.16,20.89-20.63,24.3-33.51,39.49-10.98,12.95-5.56,30.3-14.44,46.56-.85,1.55-6.42,8.04-5.52,8.97,11.21-2.69,23.22-11.13,27.04-22.45,1.4-4.14,1.32-8.61,2.42-12.58,5.37-19.39,18.98-23.91,27.7-39.3,7.95-14.03,8.61-25.5,8.84-41.16.05-3.64,2.55-3.89-.57-6.98h-.01ZM597,561.01c17.21,20.89,24.07,50.9-6.74,62.75-33.2,12.77-86.57-12.63-115.18-30.35-17.99-11.14-34.64-27.45-53.04-36.96-7.14-3.69-15.3-8.2-23.04-4.44l28.52,23.96c18.41,16.4,32.44,36.84,49.45,54.55,2.91,3.03,9.93,11.05,13.47,11.53,9.84,1.31,31.55.58,42.04-.06,35.19-2.15,71.45-13.92,103.38-28.12,2.23-3.56-11.11-26.95-14.06-31.18-6.12-8.78-14.63-17.75-24.81-21.67h.01ZM464,637.99c-17.42-22.38-35.73-44.65-57.53-62.96-5.61-4.71-23.44-19.27-29.93-19.08-2.67.08-4.94,1.76-7.54,2.07,5.72,4.88,12.69,8.17,18.47,13.02,18.68,15.65,29.88,36.99,40.56,58.44,11.4,4.53,23.79,7,35.97,8.52h0ZM409,621.99c-14.21-26.43-44.62-70.44-78.98-47.49,23.29,20.08,49.98,36.93,78.98,47.49ZM635,578.01l14.49,27.97,13.49-8.48c-2.22-2.83-26.6-20.8-27.98-19.49Z"></path>
  <path d="M412,746h48v-35.5c0-1.56-3.05-6.22-4.46-7.54-3.4-3.18-12.5-4.17-6.89-9.81,13.57-.59,27.15.17,40.6.63,3.21.11,16.45-2.84,10.82,4.8-2.76,3.75-8.8,1.39-9.98,10.01,1.71,28.86-2.76,61.54-.14,89.95.67,7.25,5.13,9.57,11.61,11.39l.44,6.06h-53.5c-1.46,0-2.14-4.6-1.07-6.08.79-1.09,6.39-1.07,8.94-3.06.94-.74,3.63-4.73,3.63-5.37v-42.5h-48c1,13.21-1.8,29.51,1.21,42.29,1.71,7.27,9.9,6.77,11.89,9.11,2.45,2.9.93,5.24-2.55,5.65-9.94,1.17-39.2,1.2-49.1,0-1.88-.23-3.33-.15-3.52-2.57-.39-4.78,4.67-4.06,7.44-5.61,4.42-2.47,5.33-7.75,5.67-12.33,2.06-27.7-3.44-58.79-1.1-86.99-1.43-9.06-13.68-6.14-11.9-13.96l52.3-1.44,1.6,1.46c1.66,5.63-11.95,6.89-11.95,13.89v37.52Z"></path>
  <path d="M730.5,816l-67.53-84.47-4.96-4.53c.78,19.27-1.07,39.36-.05,58.54.22,4.08.95,14.4,2.62,17.38,2.62,4.67,8.69,5.54,13.28,7.21l-.8,5.44c-1.74,1.24-38.25,1.01-42.61.48-4.02-.48-4.16-2.29-3-6.1,7.08-2.76,11.34-3.61,13.29-11.7,3.03-12.58,2.69-73.34.16-86.66-1.9-10.01-10.49-9.41-12.42-12.57-5.07-8.29,8.23-5.1,11.9-5.13,5.99-.06,11.16.03,17.11.21,3.63.11,7.44-2.1,11-.13l67.5,84.03v-60.5c0-1.67-2.14-9.1-3.15-10.85-3.91-6.77-13.18-5.99-12.85-13.65h39.5c1.29,0,3.84.63,5.53.43l.3,5.36c-.92,2-6.35,1.93-8.86,4.18-1.07.96-4.47,7.56-4.47,8.53v104.5h-21.5,0Z"></path>
  <path d="M200.5,693c1.31.92,1.9,2.04,2.55,3.45,14.51,31.27,22.95,69.82,37.77,101.23,1.41,2.98,2.56,5.62,5.15,7.85,2.74,2.36,9.19,3.69,9.9,6.17,1.19,4.15-2.04,5.04-5.31,5.36-16.09,1.56-35.24-.92-51.62-.49-3.91-9.57,2.5-6.1,6.63-8.49,8.32-4.83-.47-20.85-2.46-27.48l-42.01.51c-2.29,11.87-13.17,25.62,5.44,28.86l-.47,6.61c-5.32.26-42.25,1.48-43.62-.5-4.58-6.61,6.56-8.65,9.61-11.52,15.42-30.41,24.63-63.92,37.58-95.53,1.08-5.88-8.76-9.58-7.63-16.02h38.5-.01ZM166,767h26.5c.77,0,2.94-1.66,4.51-1.01-3.75-13.21-9.58-26.1-14.52-39l-16.49,40.01h0Z"></path>
  <path d="M849.5,693l39.62,106.38c1.23,2.37,4.2,6.25,6.37,7.63,2.65,1.68,5.65,1.38,7.48,2.53,2.68,1.69,1.74,7.08-1.45,7.48-16.77-1.48-36.69,1.92-53.05.05-2.39-.27-3.03-4.06-2.01-6.07,2-3.93,9.91.94,10.6-9.46.23-3.45-3.67-18.23-5.54-20.55-.55-.69-1.08-1.08-2-1.03l-39.57.5c-1.41.82-7.05,18.51-6.9,20.91.57,8.88,9.59,5.7,11.49,8.59l-.47,6.61c-1.66,1.17-36.4.97-40.61.48-1.41-.16-2.76.03-3.34-1.68-2.25-6.67,7.18-7.32,10.41-10.34,14.84-31.12,24.57-64.68,37.33-96.78.58-4.2-8.89-9.59-6.85-15.25h38.5,0ZM815,767h29.5c.3,0,1.78-1.49,1.35-2.29l-14.86-38.7c-2.65,1.59-3.56,5.85-4.74,8.75-1.47,3.61-12.49,31.08-11.25,32.25h0Z"></path>
  <path d="M559,706v42h22.5c.81,0,7.08-3.12,7.94-4.06,2.17-2.35,2.02-5.87,3.48-8.52,1.57-1.59,6.07.81,6.07,2.08v38.5c-2.28.64-4,1.26-6.02-.48-1.64-3.37-1.16-7.07-3.63-10.28-4.27-5.55-23.55-3.87-30.36-4.24v39.5c9.65,4.56,33.49,3.07,42.34-2.66,7.13-4.63,8.97-21.64,17.25-13.38l-5.59,31.55h-96l.43-6.07c9.49-1.68,11.95-6.18,12.61-15.38,1.91-26.44-1.42-55.24-.15-81.93-.64-4.92-2.58-9.44-7.16-11.84-3.41-1.79-7.57.12-5.25-6.87l89.86-.8c1.37.35,1.4,1.28,1.64,2.43,1.08,5.22,2.4,20.78,2.12,26-.16,2.99-.71,5.63-4.35,5.33-5.48-1.44-4.39-7.43-6.53-11.57s-10.15-9.3-14.7-9.3h-26.5,0Z"></path>
  <path d="M319,795.5c1.12,9.18,6.49,11.87,14.54,14.45l-.49,5.61h-56.12l-.49-5.61c2.76-1.87,6.5-1.63,9.08-3.92,3.69-3.28,4.23-13.47,4.51-18.49,1.45-25.77-1.05-52.98-.18-78.9l-1.5-1.5c-9.69-.45-22.89.39-29.88,7.84-2.52,2.68-6.07,11.37-7.16,12.09-1.94,1.28-5.68.85-6.87-1.07-1.53-2.48,5.42-26.72,4.59-31.96l109-.6c1.01.84,3.75,22.92,3.94,26.06.13,2.07.81,7.66-1.62,8.41-5.89,1.83-8.25-8.57-11.37-12.42-6.55-8.08-20.35-9.84-30-7.5v87.5h.02Z"></path>
  <path d="M644.5,865c11.53,1.91,15.07,16.85,5.5,23.98,12.04,3.45,9.08,20.38-1.05,24.47-.61.25-6.12,1.55-6.45,1.55h-22l-1.5-1.5v-48.5c7.75.9,18.11-1.23,25.5,0h0ZM628.99,885.01c4.46.08,18.99,1.52,16.86-6.28-1.62-5.93-11.06-2.56-15.39-4.47-2.56.45-1.11,8.66-1.46,10.75h0ZM629,905h15.5c1.2,0,3.71-4.72,3.53-6.47-.17-1.63-3.39-4.53-4.53-4.53h-14.5v11Z"></path>
  <path d="M489,867.5c0-.39-1.86-1.45.62-2.38l9.18.09,21.2,29.79v-30l8.36.14,1.5,1.5-.8,47.92c-2.94.76-6.8,1.21-9.14-.98l-20.92-29.58v31h-10c-.1-15.82.13-31.67,0-47.5h0Z"></path>
  <path d="M543,915v-50h22.5c1.51,0,8.87,3.41,10.43,4.57,15.01,11.06,11.51,37.48-6.22,43.65-1.01.35-5.74,1.79-6.21,1.79h-20.5ZM553,875v30c14.67,2.01,25.48-5.74,20.71-21.22-2.9-9.4-12.26-9.33-20.71-8.78Z"></path>
  <path d="M134,865v18.5l1.46,1.25c1.91-1.51,17.54,1.36,17.54-1.25v-18.5h10v50h-10v-20h-19v20l-10-1.5v-48.5h10Z"></path>
  <path d="M369,865v18.5l1.47,1.2c3.15-.2,6.94-.67,10.02-.69,2.62-.01,5.69,1.99,7.5-.51v-18.5h9v50h-9v-19.5l-1.5-1.28c-.41-.03-.75.78-1,.78h-16.5v20h-10v-50h10.01Z"></path>
  <path d="M211,865v9h-24l-.76,9.54,1.26,1.46h20.5l-.12,8.38-1.38,1.39c-.41.03-.75-.77-1-.77h-18l-1.27,1.45c2.22,3.38-1.2,7.43,1.27,9.55h23.5v10h-30.5c-.75,0-2.31-.89-3.51-.5l-.94-1.03.95-48.47h34Z"></path>
  <path d="M700,885l-.12,8.38-1.38,1.39c-.41.03-.75-.77-1-.77h-18c-1.93,1.22-2.08,11,0,11h23.5v10h-34v-50h33.5l1.25,1.46v6.08l-1.25,1.46h-23l-1.34,1.66c-.28,1.26-.22,2.56-.22,3.84,0,2.05-.33,4.23,1.56,5.5h20.5Z"></path>
  <path d="M749.14,914.86l-4.3-10.7-19.23-.23c-2.82,8.45-3.05,12.81-13.61,11.06l18.12-49.88c3.26.11,8.74-1.37,10.8,1.47l19.06,46.92c-.13,2.21-8.81,1.57-10.84,1.36h0ZM735.99,879c-4.22,3.02-3.65,9.8-6.56,13.96-.75,3.2,11.14,2.7,11.57.51l-5.01-14.47h0Z"></path>
  <path d="M248.9,865.1l19.09,49.89c-12.43,2.04-10.39-2.95-15.66-10.83l-19.22-.04-3.51,9.98-9.6.89,18.09-49.89h10.81ZM238,895c2.32-.32,10.29,1.14,10.94-1.57l-4.95-14.43c-2.56,1.23-6.9,15.09-5.99,15.99h0Z"></path>
  <path d="M459.86,865.14l19.12,48.36c-.04,2.02-8.25,1.93-10,1.02l-5.64-10.36-16.73-.94c-2.89.53-4.04,9.14-5.77,11.61l-9.83.16,19.15-49.83,9.7-.02h0ZM449,894.99c2.15-.2,11.95.9,11.98-1.49l-6.48-14.48c-1.1,0-6.11,15.39-5.5,15.97Z"></path>
  <path d="M805,865v36.5c0,2.93-6,9.8-8.65,11.35-5.35,3.14-16.33,3.15-21.7,0-3.71-2.18-8.65-9.12-8.65-13.35v-33.5h9v29.5c0,3.77,5.45,9.11,9.47,9.56,4.4.5,11.53-3.21,11.53-7.56v-32.5h9Z"></path>
  <path d="M853,865v10.01h-13v38.5l-1.66,1.34c-1.26.28-2.56.22-3.84.22-2.05,0-4.23.33-5.5-1.56v-38.5h-14v-10h38Z"></path>
  <path d="M877,895.5l-18-30.49,11.84.15,10.67,18.84,11.47-18.52,11.03.03c-2.93,8.3-14.58,20.79-16.54,28.46-1.6,6.29.57,13.7-.91,20.09l-9.56.94v-19.5h0Z"></path>
  <path d="M348,865v10h-14l.88,38.42c-.66,2.76-8.54,1.22-10.88,1.58v-40h-14v-10h38Z"></path>
  <path d="M288,865v40h23c-1.62,3.37,1.18,7.59-1.5,10h-31.5l-.53-49.05,10.53-.95Z"></path>
  <path d="M641.7,324.29c5.14,6.07-2.88,8.04-8.07,7.6-17.69-1.5-20.29-6.25-40.16.08-5.54,1.76-17.55,9.26-21.4,9.61-1.74.16-3.96-2.56-4.12-4.13-.64-6.47,20.97-15.61,26.52-17.48,11.24-3.79,19.74-5.36,31.57-2.5,2.66.64,14.3,5.2,15.67,6.82h-.01Z"></path>
  <path d="M628.76,335.24c5.56,5.53-4.32,8.16-5.1,9.98-2.58,6.03,3.06,15.63-4.55,19.29-8.46-.18-7.81-10.4-9.12-16.52-5.09.21-23.98,9-25.85,2.3-1.58-5.67,13.23-10.65,17.64-12.01,4.67-1.43,23.92-6.07,26.97-3.04h0Z"></path>
</svg>